<svg xmlns="http://www.w3.org/2000/svg" viewBox="0 0 1400 900" role="img" aria-label="Bespoke architectural steel fabrication">
<defs>
  <linearGradient id="bg" x1="0" y1="0" x2="1" y2="1"><stop stop-color="#071017"/><stop offset="1" stop-color="#111820"/></linearGradient>
  <linearGradient id="steel" x1="0" y1="0" x2="1" y2="1"><stop stop-color="#e7eef2"/><stop offset=".45" stop-color="#81929c"/><stop offset="1" stop-color="#33434c"/></linearGradient>
  <linearGradient id="hot" x1="0" y1="0" x2="1" y2="0"><stop stop-color="#ff5a00"/><stop offset=".55" stop-color="#ff9d00"/><stop offset="1" stop-color="#fff3b0"/></linearGradient>
  <filter id="glow"><feGaussianBlur stdDeviation="20"/></filter>
  <pattern id="grid" width="48" height="48" patternUnits="userSpaceOnUse"><path d="M48 0H0V48" fill="none" stroke="#9fb1bb" stroke-opacity=".07"/></pattern>
</defs>
<rect width="1400" height="900" fill="url(#bg)"/><rect width="1400" height="900" fill="url(#grid)"/>

<path d="M180 730h1040" stroke="#3f5059" stroke-width="20"/>
<path d="M260 730V190M560 730V315M840 730V170M1130 730V350" stroke="url(#steel)" stroke-width="32"/>
<path d="M245 210l610-28M560 335l580 30M260 485l870-18" stroke="#91a2ab" stroke-width="24"/>
<path d="M875 730V470h220v260" fill="none" stroke="#ff6a00" stroke-width="22"/>
<path d="M875 470l110-150 110 150" fill="none" stroke="#ff6a00" stroke-width="22"/>
</svg>