<svg xmlns="http://www.w3.org/2000/svg" viewBox="0 0 1600 1000" role="img" aria-label="Perforated sheet metal">
<defs>
  <linearGradient id="bg" x1="0" y1="0" x2="1" y2="1">
    <stop stop-color="#0a141d"/><stop offset="1" stop-color="#102434"/>
  </linearGradient>
  <linearGradient id="steel" x1="0" y1="0" x2="1" y2="1">
    <stop stop-color="#e4edf3"/><stop offset=".5" stop-color="#8898a2"/><stop offset="1" stop-color="#35434b"/>
  </linearGradient>
  <linearGradient id="blue" x1="0" y1="0" x2="1" y2="1"><stop stop-color="#2f9bff"/><stop offset="1" stop-color="#0f5dff"/></linearGradient>
  <linearGradient id="hot" x1="0" y1="0" x2="1" y2="0"><stop stop-color="#ff6a00"/><stop offset=".6" stop-color="#ffb000"/><stop offset="1" stop-color="#fff7c8"/></linearGradient>
  <filter id="glow"><feGaussianBlur stdDeviation="18"/></filter>
  <pattern id="grid" width="52" height="52" patternUnits="userSpaceOnUse"><path d="M52 0H0V52" fill="none" stroke="#88a9bc" stroke-opacity=".06"/></pattern>
</defs>
<rect width="1600" height="1000" fill="url(#bg)"/>
<rect width="1600" height="1000" fill="url(#grid)"/>

<rect x="210" y="135" width="1180" height="700" rx="28" fill="url(#steel)" transform="skewX(-5)"/>
<g><circle cx="340" cy="260" r="16" fill="#09131a"/><circle cx="412" cy="260" r="16" fill="#09131a"/><circle cx="484" cy="260" r="16" fill="#09131a"/><circle cx="556" cy="260" r="16" fill="#09131a"/><circle cx="628" cy="260" r="16" fill="#09131a"/><circle cx="700" cy="260" r="16" fill="#09131a"/><circle cx="772" cy="260" r="16" fill="#09131a"/><circle cx="844" cy="260" r="16" fill="#09131a"/><circle cx="916" cy="260" r="16" fill="#09131a"/><circle cx="988" cy="260" r="16" fill="#09131a"/><circle cx="1060" cy="260" r="16" fill="#09131a"/><circle cx="1132" cy="260" r="16" fill="#09131a"/><circle cx="1204" cy="260" r="16" fill="#09131a"/><circle cx="370" cy="330" r="16" fill="#09131a"/><circle cx="442" cy="330" r="16" fill="#09131a"/><circle cx="514" cy="330" r="16" fill="#09131a"/><circle cx="586" cy="330" r="16" fill="#09131a"/><circle cx="658" cy="330" r="16" fill="#09131a"/><circle cx="730" cy="330" r="16" fill="#09131a"/><circle cx="802" cy="330" r="16" fill="#09131a"/><circle cx="874" cy="330" r="16" fill="#09131a"/><circle cx="946" cy="330" r="16" fill="#09131a"/><circle cx="1018" cy="330" r="16" fill="#09131a"/><circle cx="1090" cy="330" r="16" fill="#09131a"/><circle cx="1162" cy="330" r="16" fill="#09131a"/><circle cx="1234" cy="330" r="16" fill="#09131a"/><circle cx="340" cy="400" r="16" fill="#09131a"/><circle cx="412" cy="400" r="16" fill="#09131a"/><circle cx="484" cy="400" r="16" fill="#09131a"/><circle cx="556" cy="400" r="16" fill="#09131a"/><circle cx="628" cy="400" r="16" fill="#09131a"/><circle cx="700" cy="400" r="16" fill="#09131a"/><circle cx="772" cy="400" r="16" fill="#09131a"/><circle cx="844" cy="400" r="16" fill="#09131a"/><circle cx="916" cy="400" r="16" fill="#09131a"/><circle cx="988" cy="400" r="16" fill="#09131a"/><circle cx="1060" cy="400" r="16" fill="#09131a"/><circle cx="1132" cy="400" r="16" fill="#09131a"/><circle cx="1204" cy="400" r="16" fill="#09131a"/><circle cx="370" cy="470" r="16" fill="#09131a"/><circle cx="442" cy="470" r="16" fill="#09131a"/><circle cx="514" cy="470" r="16" fill="#09131a"/><circle cx="586" cy="470" r="16" fill="#09131a"/><circle cx="658" cy="470" r="16" fill="#09131a"/><circle cx="730" cy="470" r="16" fill="#09131a"/><circle cx="802" cy="470" r="16" fill="#09131a"/><circle cx="874" cy="470" r="16" fill="#09131a"/><circle cx="946" cy="470" r="16" fill="#09131a"/><circle cx="1018" cy="470" r="16" fill="#09131a"/><circle cx="1090" cy="470" r="16" fill="#09131a"/><circle cx="1162" cy="470" r="16" fill="#09131a"/><circle cx="1234" cy="470" r="16" fill="#09131a"/><circle cx="340" cy="540" r="16" fill="#09131a"/><circle cx="412" cy="540" r="16" fill="#09131a"/><circle cx="484" cy="540" r="16" fill="#09131a"/><circle cx="556" cy="540" r="16" fill="#09131a"/><circle cx="628" cy="540" r="16" fill="#09131a"/><circle cx="700" cy="540" r="16" fill="#09131a"/><circle cx="772" cy="540" r="16" fill="#09131a"/><circle cx="844" cy="540" r="16" fill="#09131a"/><circle cx="916" cy="540" r="16" fill="#09131a"/><circle cx="988" cy="540" r="16" fill="#09131a"/><circle cx="1060" cy="540" r="16" fill="#09131a"/><circle cx="1132" cy="540" r="16" fill="#09131a"/><circle cx="1204" cy="540" r="16" fill="#09131a"/><circle cx="370" cy="610" r="16" fill="#09131a"/><circle cx="442" cy="610" r="16" fill="#09131a"/><circle cx="514" cy="610" r="16" fill="#09131a"/><circle cx="586" cy="610" r="16" fill="#09131a"/><circle cx="658" cy="610" r="16" fill="#09131a"/><circle cx="730" cy="610" r="16" fill="#09131a"/><circle cx="802" cy="610" r="16" fill="#09131a"/><circle cx="874" cy="610" r="16" fill="#09131a"/><circle cx="946" cy="610" r="16" fill="#09131a"/><circle cx="1018" cy="610" r="16" fill="#09131a"/><circle cx="1090" cy="610" r="16" fill="#09131a"/><circle cx="1162" cy="610" r="16" fill="#09131a"/><circle cx="1234" cy="610" r="16" fill="#09131a"/><circle cx="340" cy="680" r="16" fill="#09131a"/><circle cx="412" cy="680" r="16" fill="#09131a"/><circle cx="484" cy="680" r="16" fill="#09131a"/><circle cx="556" cy="680" r="16" fill="#09131a"/><circle cx="628" cy="680" r="16" fill="#09131a"/><circle cx="700" cy="680" r="16" fill="#09131a"/><circle cx="772" cy="680" r="16" fill="#09131a"/><circle cx="844" cy="680" r="16" fill="#09131a"/><circle cx="916" cy="680" r="16" fill="#09131a"/><circle cx="988" cy="680" r="16" fill="#09131a"/><circle cx="1060" cy="680" r="16" fill="#09131a"/><circle cx="1132" cy="680" r="16" fill="#09131a"/><circle cx="1204" cy="680" r="16" fill="#09131a"/><circle cx="370" cy="750" r="16" fill="#09131a"/><circle cx="442" cy="750" r="16" fill="#09131a"/><circle cx="514" cy="750" r="16" fill="#09131a"/><circle cx="586" cy="750" r="16" fill="#09131a"/><circle cx="658" cy="750" r="16" fill="#09131a"/><circle cx="730" cy="750" r="16" fill="#09131a"/><circle cx="802" cy="750" r="16" fill="#09131a"/><circle cx="874" cy="750" r="16" fill="#09131a"/><circle cx="946" cy="750" r="16" fill="#09131a"/><circle cx="1018" cy="750" r="16" fill="#09131a"/><circle cx="1090" cy="750" r="16" fill="#09131a"/><circle cx="1162" cy="750" r="16" fill="#09131a"/><circle cx="1234" cy="750" r="16" fill="#09131a"/></g>

</svg>